<?xml version="1.0" encoding="utf-8"?>
<!-- Generator: Adobe Illustrator 26.5.0, SVG Export Plug-In . SVG Version: 6.00 Build 0)  -->
<svg version="1.1" id="Lager_1" xmlns="http://www.w3.org/2000/svg" xmlns:xlink="http://www.w3.org/1999/xlink" x="0px" y="0px"
	 viewBox="0 0 32 32" style="enable-background:new 0 0 32 32;" xml:space="preserve">
<style type="text/css">
	.st0{fill:#101820;}
</style>
<g id="Layer_53">
	<path class="st0" d="M8,31c-0.4,0-0.8-0.1-1.2-0.4c-0.6-0.5-0.9-1.2-0.8-1.9l0.7-8.2l-5.2-6.2C1,13.8,0.9,13,1.1,12.3
		c0.2-0.7,0.8-1.2,1.5-1.4l7.6-1.8l4-7c0.6-1,1.8-1.3,2.8-0.8c0.3,0.2,0.6,0.5,0.8,0.8l4,7.1l7.6,1.8c0.7,0.2,1.3,0.7,1.5,1.4
		c0.2,0.7,0.1,1.5-0.4,2.1l-5.2,6.1l0.7,8.2c0.1,0.8-0.3,1.5-0.9,1.9c-0.6,0.4-1.3,0.5-2,0.2L16,27.6l-7.2,3.2C8.6,30.9,8.3,31,8,31
		z M16,3l-4.3,7.4c-0.1,0.2-0.4,0.4-0.6,0.5l-8,1.9C3,12.9,3,13,3.1,13l5.4,6.5c0.2,0.2,0.3,0.5,0.2,0.7L8,28.8C7.9,29,8,29,8,29
		l7.6-3.4c0.3-0.1,0.6-0.1,0.8,0L24,29c0,0,0.1,0,0.1-0.1l-0.8-8.6c0-0.3,0.1-0.5,0.2-0.7l5.5-6.5c0,0,0-0.1,0-0.1l-8.1-2
		c-0.3-0.1-0.5-0.2-0.6-0.5L16,3z M10.9,10L10.9,10z"/>
</g>
</svg>
