<?xml version="1.0" encoding="UTF-8"?>
<svg id="Lager_1" data-name="Lager 1" xmlns="http://www.w3.org/2000/svg" xmlns:xlink="http://www.w3.org/1999/xlink" viewBox="0 0 56 56">
  <defs>
    <style>
      .cls-1 {
        fill: #f7d21b;
        filter: url(#outer-glow-1);
      }
    </style>
    <filter id="outer-glow-1" filterUnits="userSpaceOnUse">
      <feOffset dx="0" dy="0"/>
      <feGaussianBlur result="blur" stdDeviation="5"/>
      <feFlood flood-color="#ffe05f" flood-opacity=".75"/>
      <feComposite in2="blur" operator="in"/>
      <feComposite in="SourceGraphic"/>
    </filter>
  </defs>
  <g id="Layer_53" data-name="Layer 53">
    <path class="cls-1" d="M40.05,26.67l-4.31,5.07,.61,6.79c.06,.62-.22,1.24-.73,1.6-.48,.35-1.12,.41-1.66,.17l-5.95-2.69-5.94,2.69c-.22,.1-.46,.15-.7,.15-.35,0-.69-.11-.97-.32-.5-.37-.75-.99-.69-1.6l.61-6.79-4.34-5.11c-.4-.47-.52-1.12-.32-1.71,.18-.57,.66-1,1.24-1.14l6.32-1.49,3.32-5.81c.46-.82,1.49-1.11,2.31-.66,.27,.15,.5,.38,.66,.66l3.32,5.85,6.32,1.49c.58,.14,1.05,.57,1.24,1.14,.2,.59,.07,1.24-.32,1.71Z"/>
  </g>
</svg>